<svg width="54" height="64" viewBox="0 0 54 64" fill="none" xmlns="http://www.w3.org/2000/svg">
<path fill-rule="evenodd" clip-rule="evenodd" d="M21.9847 0.296616C11.0096 2.1455 2.07666 11.1174 0.267629 22.1082C-0.169851 24.7659 -0.0582684 29.3534 0.509393 32.0565C1.59512 37.227 3.50644 40.8373 8.34707 46.8615C12.1031 51.5356 18.4525 57.7943 23.4069 61.7057C25.4037 63.2821 26.1886 63.7308 26.9493 63.7308C27.9037 63.7308 32.2232 60.4019 37.1858 55.8416L39.6389 53.5873L40.3423 55.0136C41.0833 56.5162 41.3943 56.7752 42.2051 56.5649C42.726 56.4296 42.8848 56.1504 46.7313 48.6032C48.406 45.3175 48.5915 44.839 48.3032 44.5506C48.0216 44.2692 47.1161 44.2483 41.7971 44.4018L35.6181 44.58L35.5492 45.176C35.5114 45.5039 35.6444 46.0226 35.845 46.3286C36.0456 46.6348 36.1474 46.9861 36.0711 47.1095C35.6741 47.752 29.5713 49.116 27.0943 49.116C25.3116 49.116 21.8299 48.4812 19.6534 47.7595C9.41465 44.3644 2.96181 33.4714 4.83615 22.746C7.09219 9.83573 20.1263 1.90329 32.9717 5.62298C40.3507 7.75969 46.0481 13.7478 47.9495 21.3652C48.6438 24.1468 48.644 29.6056 47.9501 32.1339C47.3727 34.2372 46.0844 37.0319 44.7195 39.142L43.6995 40.7188L46.5221 40.6568L49.3447 40.5949L50.2757 38.713C54.1596 30.8614 54.1244 21.7011 50.1811 14.0662C46.4643 6.86945 39.3863 1.73614 31.2156 0.311227C28.871 -0.097693 24.3669 -0.104776 21.9847 0.296616ZM25.1017 27.0896V44.6907H26.6515H28.2013V27.0896V9.48858H26.6515H25.1017V27.0896ZM21.3291 10.1364C16.9408 11.5179 13.1144 14.8594 11.043 19.1193C9.8012 21.6736 9.40225 23.2134 9.23509 26.0973C8.78189 33.9231 13.5433 40.9265 21.1489 43.6207C22.0799 43.9503 22.9019 44.16 22.9754 44.0865C23.0489 44.013 23.1092 43.6171 23.1092 43.2069C23.1092 42.2312 22.6686 41.842 19.7329 40.2258L17.3528 38.9153V37.6069V36.2984L18.6553 37.1636C20.589 38.448 22.7934 39.6189 22.9615 39.4509C23.0427 39.3699 23.1067 38.498 23.1041 37.5137L23.0988 35.7241L20.9454 34.3326C17.5853 32.1612 17.367 31.9404 17.2029 30.5468C17.1217 29.8562 17.1476 29.3904 17.2645 29.4398C17.3756 29.4867 18.6276 30.2972 20.047 31.2408C21.4664 32.1844 22.7361 32.9567 22.8685 32.9567C23.1262 32.9567 23.2196 28.8526 22.9763 28.2188C22.9033 28.0281 21.9803 27.3786 20.9253 26.7748C19.8701 26.1711 18.6223 25.3446 18.1521 24.9381C17.4106 24.2972 17.2826 24.0457 17.1861 23.0429C17.125 22.4071 17.1425 21.8868 17.2246 21.8868C17.307 21.8868 18.2893 22.5439 19.4076 23.3469C21.7434 25.024 22.5906 25.502 22.8942 25.3145C23.1428 25.1608 23.1827 21.4507 22.9398 21.096C22.8503 20.9654 22.0635 20.4004 21.1916 19.84C20.3196 19.2799 19.1988 18.4536 18.7009 18.0037C17.8767 17.2592 17.7956 17.0891 17.7956 16.1048C17.7956 15.5101 17.8545 15.0235 17.9265 15.0235C17.9984 15.0235 18.7034 15.5597 19.4931 16.2151C20.2826 16.8704 21.4192 17.6736 22.0188 18.0002L23.1092 18.5935V14.1516C23.1092 10.735 23.0452 9.71462 22.8324 9.73012C22.6803 9.74119 22.0037 9.92406 21.3291 10.1364ZM30.1939 13.53C30.1939 15.6503 30.2534 17.4447 30.326 17.5173C30.3989 17.5902 30.922 17.3694 31.4884 17.0271C33.2852 15.9414 35.58 14.8209 35.7684 14.9374C35.8685 14.9991 35.9502 15.4366 35.9502 15.9098C35.9502 16.7681 35.9458 16.7721 33.7599 17.9991C32.5553 18.6752 31.2601 19.581 30.8817 20.0118C30.2222 20.7628 30.1939 20.8768 30.1939 22.7671C30.1939 23.8707 30.2935 24.8004 30.4201 24.8785C30.6814 25.0402 32.3217 24.0766 34.4274 22.5247C35.234 21.9302 36.006 21.444 36.1432 21.444C36.2951 21.444 36.393 21.8749 36.393 22.5424C36.393 23.8816 36.335 23.9414 33.0807 25.9581C31.727 26.7967 30.5237 27.6619 30.4066 27.8807C30.1077 28.4393 30.1345 31.7868 30.4396 31.9754C30.5747 32.0589 31.8714 31.3128 33.3213 30.3172C34.7712 29.3215 36.0553 28.5677 36.1751 28.6416C36.4605 28.8181 36.4552 30.2127 36.1672 30.7509C36.0429 30.9831 34.7728 31.9347 33.3443 32.8657C31.9161 33.7966 30.6229 34.715 30.4706 34.9067C30.1852 35.266 30.0668 38.9547 30.332 39.22C30.5304 39.4186 32.0292 38.6182 34.0307 37.2453C34.984 36.5913 35.806 36.0562 35.8572 36.0562C35.9083 36.0562 35.9502 36.6407 35.9502 37.3552C35.9502 38.6165 35.9254 38.6705 35.0998 39.2169C34.6322 39.5264 33.4406 40.1862 32.4519 40.6834C31.4634 41.1804 30.5508 41.7809 30.4241 42.0173C30.2975 42.254 30.1939 42.8606 30.1939 43.3654V44.2831L30.9134 44.1281C33.5786 43.5545 36.8754 41.5544 39.1905 39.1068C41.138 37.0479 42.3494 35.0356 43.293 32.2925C43.9778 30.3012 44.0168 30.0181 44.0236 26.9789C44.0298 24.2726 43.951 23.4926 43.5217 22.0101C42.635 18.9464 41.4364 16.9516 39.057 14.5803C36.3704 11.902 33.9348 10.4813 30.9134 9.82997L30.1939 9.67477V13.53Z" fill="#265395"/>
</svg>
