<svg width="36" height="37" viewBox="0 0 36 37" fill="none" xmlns="http://www.w3.org/2000/svg">
<path fill-rule="evenodd" clip-rule="evenodd" d="M20.2907 0.632494C17.3006 1.09896 14.7164 2.40821 12.591 4.53337C9.7836 7.34041 8.30041 11.2953 8.61107 15.1454C8.76939 17.1073 9.20975 18.6923 10.0694 20.3953L10.5842 21.415L5.2921 26.7068L0 31.9988L2.25011 34.2494L4.50022 36.5L9.81068 31.1954L15.1211 25.8907L15.4728 26.1019C16.3733 26.6428 17.9076 27.2595 19.027 27.5305C22.1492 28.2864 25.5031 27.9143 28.3381 26.4974C29.8034 25.7651 30.8434 25.0202 31.9612 23.9026C34.5907 21.2734 36 17.8902 36 14.2066C36 10.5344 34.6068 7.15961 32.0137 4.5511C29.3805 1.90215 25.9439 0.480029 22.2248 0.500212C21.5198 0.504009 20.7974 0.553448 20.2907 0.632494ZM23.8777 2.75337C27.7801 3.23425 31.36 5.96161 32.9114 9.63548C34.0378 12.3028 34.1599 15.1899 33.259 17.8506C32.0922 21.2963 29.4445 23.9724 26.058 25.1287C21.8515 26.5651 17.2455 25.4962 14.1107 22.3561C10.9306 19.1707 9.89185 14.4409 11.4407 10.1981C12.7261 6.67633 15.8024 3.90853 19.4467 2.99472C20.9191 2.62552 22.2513 2.55294 23.8777 2.75337ZM20.783 4.81749C17.7376 5.33902 15.1541 7.24168 13.794 9.96468C13.0206 11.5131 12.6741 13.325 12.8315 14.9978C13.1515 18.399 15.1036 21.2373 18.1427 22.7201C20.8378 24.0351 23.7525 24.0351 26.4477 22.7201C29.4763 21.2423 31.4374 18.3966 31.7513 15.024C32.2152 10.0393 28.6423 5.54304 23.618 4.78866C22.9522 4.68865 21.4455 4.70398 20.783 4.81749ZM23.0337 6.8949C23.9655 6.99258 24.6309 7.18788 25.5305 7.62783C27.5248 8.60318 28.9027 10.3214 29.4527 12.5188C29.6525 13.3172 29.6682 14.8856 29.4849 15.7347C29.0095 17.9372 27.4567 19.8879 25.4125 20.851C23.6304 21.6906 21.3785 21.7573 19.5682 21.0242C16.6548 19.8444 14.8321 17.0192 14.9657 13.8902C15.1322 9.98852 18.172 7.01896 22.1897 6.83302C22.2864 6.82859 22.6662 6.85643 23.0337 6.8949ZM23.4906 13.5739L21.2413 15.8238L20.0278 14.6118L18.8141 13.3999L18.0754 14.136C17.6691 14.541 17.3366 14.9046 17.3366 14.9443C17.3366 14.9839 18.2071 15.8863 19.271 16.9495L21.2053 18.8827L24.2301 15.8584L27.2548 12.834L26.4974 12.079L25.74 11.324L23.4906 13.5739ZM10.5069 27.4704L7.66649 30.3111L6.92799 29.5727L6.18949 28.8342L9.02991 25.9935L11.8703 23.1528L12.6088 23.8912L13.3473 24.6296L10.5069 27.4704ZM5.32847 32.6483L4.5031 33.4757L3.78092 32.7561L3.05873 32.0364L3.8841 31.209L4.70946 30.3815L5.43165 31.1012L6.15383 31.8208L5.32847 32.6483Z" fill="#F6F6F6"/>
</svg>
